{"title":"[Dhamal Rip] Ishqiya (2010) Upscaled DVD Rip [Dare DEvils]","uid":5409044,"size":1423797910,"categoryP":"video","categoryS":"hd___movies","magnet":"?xt=urn:btih:5ec6fc57dc50201e1a68911420f410894c50bbbe&amp;dn=%5BDhamal+Rip%5D+Ishqiya+%282010%29+Upscaled+DVD+Rip+%5BDare+DEvils%5D&amp;tr=udp%3A%2F%2Ftracker.openbittorrent.com%3A80&amp;tr=udp%3A%2F%2Fopen.demonii.com%3A1337&amp;tr=udp%3A%2F%2Ftracker.coppersurfer.tk%3A6969&amp;tr=udp%3A%2F%2Fexodus.desync.com%3A6969","seeders":2,"leechers":0,"uploader":"luvwithromio","files":-1,"time":1267700927,"description":"Format                           : AVI\nFormat/Info                      : Audio Video Interleave\nFile size                        : 1.33 GiB\nDuration                         : 1h 55mn\nOverall bit rate                 : 1 639 Kbps\n\nVideo\nID                               : 0\nFormat                           : MPEG-4 Visual\nFormat profile                   : Simple@L1\nFormat settings, BVOP            : No\nFormat settings, QPel            : No\nFormat settings, GMC             : No warppoints\nFormat settings, Matrix          : Default (H.263)\nCodec ID                         : DX50\nCodec ID/Hint                    : DivX 5\nDuration                         : 1h 55mn\nBit rate                         : 1 500 Kbps\nWidth                            : 896 pixels\nHeight                           : 448 pixels\nDisplay aspect ratio             : 2.000\nFrame rate                       : 23.976 fps\nResolution                       : 8 bits\nColorimetry                      : 4:2:0\nScan type                        : Progressive\nBits/(Pixel*Frame)               : 0.156\nStream size                      : 1.21 GiB (92%)\nWriting library                  : Lavc51.40.4\n\nAudio\nID                               : 1\nFormat                           : AC-3\nFormat/Info                      : Audio Coding 3\nCodec ID                         : 2000\nDuration                         : 1h 55mn\nBit rate mode                    : Constant\nBit rate                         : 128 Kbps\nChannel(s)                       : 6 channels\nChannel positions                : Front: L C R, Surround: L R, LFE\nSampling rate                    : 48.0 KHz\nResolution                       : 16 bits\nStream size                      : 106 MiB (8%)\nAlignment                        : Aligned on interleaves\nInterleave, duration             : 32 ms (0.77 video frame)","torrent":{"xt":"urn:btih:5ec6fc57dc50201e1a68911420f410894c50bbbe","amp;dn":"%5BDhamal+Rip%5D+Ishqiya+%282010%29+Upscaled+DVD+Rip+%5BDare+DEvils%5D","amp;tr":["udp%3A%2F%2Ftracker.openbittorrent.com%3A80","udp%3A%2F%2Fopen.demonii.com%3A1337","udp%3A%2F%2Ftracker.coppersurfer.tk%3A6969","udp%3A%2F%2Fexodus.desync.com%3A6969"],"infoHash":"5ec6fc57dc50201e1a68911420f410894c50bbbe","infoHashBuffer":{"type":"Buffer","data":[94,198,252,87,220,80,32,30,26,104,145,20,32,244,16,137,76,80,187,190]},"announce":[],"urlList":[]}}